<svg xmlns="http://www.w3.org/2000/svg" viewBox="0 0 809.76 198.97"><defs><style>.cls-1{fill:#fff}.cls-2{fill:#827717}.cls-3{fill:#d4e157}.cls-4{fill:#c0ca33}.cls-8{fill:#ffa000}.cls-11{fill:#ff6f00}.cls-12{fill:#ffca28}</style></defs><g id="Camada_2" data-name="Camada 2"><g id="Layer_1" data-name="Layer 1"><path class="cls-1" d="M61.63 175a62.28 62.28 0 01-23.25-4.53c-7.61-3.06-15.26-8.09-22.73-14.95-4.24-3.69-9.13-8.72-11-15.8a23.74 23.74 0 01-4.5-11.29 18.77 18.77 0 01-.15-2.28 23.44 23.44 0 0110.53-19.56c-.17-.41-.33-.83-.48-1.25a42.53 42.53 0 01-2.6-13.68 43.87 43.87 0 012.07-14.27 54.94 54.94 0 014.87-11.65 79 79 0 017.07-10.65 80.1 80.1 0 019-9.66 69.67 69.67 0 0110.08-7.7 40.91 40.91 0 016-3.29 38.39 38.39 0 019.27-2.77 43 43 0 017.19-.59c.86 0 1.74 0 2.62.07a46 46 0 0110.68 1.92c.32.09.64.19 1 .31a97.73 97.73 0 0111.85 5.13 52.52 52.52 0 0112.41 8.64 37.23 37.23 0 015.53 6.3l.17.17a28.32 28.32 0 018.74 1.53 48.23 48.23 0 017.68 3.11l.46.24a22.18 22.18 0 018.49-4.77 25.67 25.67 0 017.35-1.06 29.52 29.52 0 017.46 1 46.09 46.09 0 019 3.47c2.08 1.06 4.05 2.13 5.85 3.2 2.8-1.28 5.7-2.46 8.64-3.51a95.91 95.91 0 0110.26-3A58.65 58.65 0 01193 52.28h1a42.67 42.67 0 0112 1.67 33.43 33.43 0 0111.09 5.6 19.31 19.31 0 012-.62c2.49-.64 5.29-1.31 8.31-2 3.19-.73 6.57-1.41 10-2s7-1.13 10.62-1.58c3.87-.48 7.79-.79 11.66-.92h.86a26.38 26.38 0 0117.28 6.14c1-.41 2-.8 2.95-1.2a74.73 74.73 0 0114.85-4.28 53.39 53.39 0 019.16-.82 48.44 48.44 0 017.65.61 35.06 35.06 0 0119.16 9.73l.46.47c2.76-5.58 5.43-10.69 8-15.22a33.79 33.79 0 0110-11.22 29.21 29.21 0 0117.25-5.13c1 0 2 0 3.09.12 3.42.18 6.43.45 9.2.84s5.39.86 7.8 1.41 4.61 1.13 6.7 1.78c1.27.4 2.58.77 3.91 1.12.55.14 1.1.31 1.64.5a26.82 26.82 0 0114.48 11.33 25.93 25.93 0 014 3.85c.58-.05 1.17-.07 1.77-.07a28.75 28.75 0 017.93 1.17 65.43 65.43 0 017.68 2.58 50.32 50.32 0 016.94 3.41 21.88 21.88 0 016.56-3.97 22.79 22.79 0 018.28-1.53 28.09 28.09 0 018.92 1.54 48.29 48.29 0 017.69 3.1l.46.24a22.16 22.16 0 018.49-4.76 25.6 25.6 0 017.34-1.06 29.09 29.09 0 017.47 1 44.77 44.77 0 017.7 2.89 23.25 23.25 0 013.08-1.58 24.23 24.23 0 019.37-1.83 29.15 29.15 0 017.33 1l.72.2C528 55.33 530 56 532 56.6a67.13 67.13 0 017.72 3 22.41 22.41 0 016.51-4.21 23.77 23.77 0 019.34-1.85 30.06 30.06 0 017.28.94l.31.08 1.9.49a32.92 32.92 0 015 1.72c1.16.5 2.33 1.08 3.52 1.71 1 .53 2 1.13 3.11 1.83a40.39 40.39 0 0112.58-6 38.42 38.42 0 0110.73-1.6 35.69 35.69 0 015.58.44 66.94 66.94 0 0112.67 3.27 45.39 45.39 0 0112.52 6.88l.2.16a38.91 38.91 0 016.86 7.17 36.87 36.87 0 017.77 10.19 44.58 44.58 0 014 12.16c0 .18.07.41.1.64a79.73 79.73 0 01.59 17.56 90.6 90.6 0 01-3.13 18.07 83.93 83.93 0 01-7 17.41 58.16 58.16 0 01-12.74 16.17c-.31.28-.62.54-.94.79a39.11 39.11 0 01-14.95 7.28 42.79 42.79 0 01-9.88 1.12 53.6 53.6 0 01-5.46-.29 85.77 85.77 0 01-8.53-1.37 44.51 44.51 0 01-11.26-4 43.61 43.61 0 01-3.77-2.21 24 24 0 01-17.75 7.56 29.39 29.39 0 01-6.16-.67 75.34 75.34 0 01-10.45-2.9c-.19-.07-.35-.12-.5-.19-.48-.18-1-.38-1.43-.58a22.06 22.06 0 01-3.58 2.26 22.6 22.6 0 01-10.15 2.37 28.74 28.74 0 01-7.33-1l-4.09-1a35.7 35.7 0 01-8.77-3.65 28.53 28.53 0 01-2.92-1.8 36.3 36.3 0 01-3.76 2.47c-.38.21-.76.42-1.16.61a43.67 43.67 0 01-11.15 3.72 44.58 44.58 0 01-8.14.72c-1.17 0-2.39 0-3.63-.12a50.55 50.55 0 01-19.76-5.09l-1.13.23-10.68 2c-3.39.63-6.59 1.25-9.53 1.84a34.81 34.81 0 01-6.36 1c-.72.05-1.4.07-2.05.07a27.63 27.63 0 01-6.08-.66 28.39 28.39 0 01-3.67-1.09c-4.26 3-9.52 4.55-15.71 4.55-2.28 0-4.47-.07-6.5-.21a39.62 39.62 0 01-9.84-2 27.63 27.63 0 01-13.12-8.25 25 25 0 01-3.42-5.14l-.17.39-.21.47a24 24 0 01-22.1 14.49 29.8 29.8 0 01-9.89-1.8l-.59-.22c-1.15-.44-2.33-.92-3.65-1.47-.88-.36-1.75-.75-2.62-1.16l-.54.12c-.66.13-1.45.28-2.38.44a32 32 0 01-7 .76c-1 0-2.12 0-3.2-.15a32.94 32.94 0 01-13.52-4.6 23.55 23.55 0 01-3.31 2.39A22.75 22.75 0 01283 172a28 28 0 01-6-.68l-.81-.19c-1.3-.34-2.13-.51-2.6-.6a32.77 32.77 0 01-9.15-3.21l-.68-.37-.6-.36c-.73.17-1.33.28-1.75.36-3.38.63-6.9 1.31-10.43 2-3.32.65-6.69 1.29-10 1.91a34.72 34.72 0 01-7.91 1 26.07 26.07 0 01-6.84-.88 30.44 30.44 0 01-9-4c-1.19-.77-2.44-1.64-3.64-2.52s-2.54-2-4-3.23a29 29 0 01-7.4-9.36 26.32 26.32 0 01-1.49-3.63c-.41-.63-.8-1.28-1.16-1.94-1.21.5-2.44 1-3.68 1.45-.28 1.55-.54 3.07-.76 4.53a21.08 21.08 0 01-.7 3v.1a23.22 23.22 0 01-11 13.73 22.92 22.92 0 01-11.3 2.86 30.28 30.28 0 01-5.74-.58c-.45-.09-.92-.19-1.38-.32l-4.23-1.07a36.75 36.75 0 01-8.33-3.31 28.47 28.47 0 01-3.57-2.33 36.19 36.19 0 01-3.39 2.19c-.38.22-.77.43-1.17.62a44.32 44.32 0 01-11.13 3.72 45.58 45.58 0 01-8.14.71c-1.18 0-2.4 0-3.64-.12a49.62 49.62 0 01-20.87-5.68l-.09-.05a43.07 43.07 0 01-3.76-2.36Q95 164.77 93.13 166a51.51 51.51 0 01-13.08 6.28 58.46 58.46 0 01-17 2.61z"/><path d="M639.84 95.07c0-.1 0-.2-.05-.3a34.83 34.83 0 00-3.1-9.43 27.21 27.21 0 00-6.39-8 28.42 28.42 0 00-5.64-6.08l-.1-.08a35.15 35.15 0 00-9.76-5.32A57.14 57.14 0 00604 63a25.2 25.2 0 00-4-.31 28.82 28.82 0 00-7.9 1.15 30.35 30.35 0 00-10.16 5 4.94 4.94 0 00-.44.36 54.1 54.1 0 00-4.5 4.49 17.08 17.08 0 00-5-4.58c-1.14-.73-2.14-1.33-3.07-1.83s-1.87-1-2.75-1.34a21.78 21.78 0 00-3.49-1.19c-.62-.16-1.3-.33-2.06-.54h-.16a20.11 20.11 0 00-4.85-.64 13.92 13.92 0 00-5.44 1c-2.55 1.09-5.89 3.5-7.56 8.87a18.5 18.5 0 00-6.5-4.53 57 57 0 00-7.12-2.77c-1.95-.62-4-1.24-6-1.85l-.36-.1a19.21 19.21 0 00-4.83-.65 14.4 14.4 0 00-5.52 1.06 12.85 12.85 0 00-5.5 4.4c-1.47-.84-3-1.69-4.69-2.53a35.58 35.58 0 00-7-2.72 19.21 19.21 0 00-4.93-.67 15.39 15.39 0 00-4.47.64 12.47 12.47 0 00-8.49 9.16 22.34 22.34 0 00-2.15-1.78 43.27 43.27 0 00-5.71-3.52 38.64 38.64 0 00-6.2-2.5 18.46 18.46 0 00-5.88-1.06 13 13 0 00-4.68.85c-2.71 1-6.29 3.56-7.94 9.51l-.15.56a18.21 18.21 0 00-5.4-5.73l-.35-.25a38.6 38.6 0 00-7-3.61 54.88 54.88 0 00-6.58-2.22 19.54 19.54 0 00-5.3-.81 13.45 13.45 0 00-4.48.74 12.48 12.48 0 00-2.12 1 16.89 16.89 0 00-.78-2 15.91 15.91 0 00-5.91-6.6l-.3-.32-.12-.27c-1.77-3.76-5.09-6.52-9.86-8.21a8 8 0 00-.83-.26c-1.46-.38-2.92-.8-4.34-1.24-1.85-.57-3.85-1.1-5.94-1.58s-4.49-.9-7-1.26-5.27-.6-8.44-.76c-.84-.06-1.67-.1-2.46-.1a19.44 19.44 0 00-11.47 3.29 23.88 23.88 0 00-7.08 8c-3 5.39-6.26 11.67-9.61 18.61-1.58 3.28-3.14 6.6-4.69 9.92a63.72 63.72 0 00-4.77-5.85l-.37-.38c-.29-.29-.6-.57-.93-.86-1.1-1.43-2.24-2.78-3.4-4-.12-.13-.24-.26-.37-.38a25.13 25.13 0 00-13.77-7 37.8 37.8 0 00-6-.49 43.38 43.38 0 00-7.43.67 64.84 64.84 0 00-12.87 3.72c-3.23 1.29-6.42 2.63-9.48 4l-.23-.16c-2.7-5.09-7.86-8.06-14.23-8.06h-.53c-3.56.12-7.18.4-10.76.85-3.43.42-6.84.93-10.14 1.5s-6.5 1.21-9.52 1.9S224 68 221.6 68.6a10 10 0 00-5.71 4c-.78-1-1.58-2-2.38-2.86-.17-.19-.34-.36-.52-.54a23.37 23.37 0 00-9.75-5.63 32.93 32.93 0 00-9.2-1.27h-.81a48.41 48.41 0 00-9.86 1.28 84.8 84.8 0 00-9.17 2.7 101.53 101.53 0 00-8.64 3.55c-1.58.74-3.08 1.46-4.51 2.18a20.52 20.52 0 00-3.44-2.71l-.31-.19c-1.67-1-3.5-2-5.44-3a35.58 35.58 0 00-7-2.72 19.64 19.64 0 00-4.92-.67 15.75 15.75 0 00-4.48.64 12.5 12.5 0 00-8.46 9.12 20 20 0 00-2.15-1.79 42.62 42.62 0 00-5.71-3.52 37.7 37.7 0 00-6.2-2.49 18.17 18.17 0 00-5.94-1.06 13.24 13.24 0 00-3.59.48 28.6 28.6 0 00-2.76-2.88c-.41-.39-.84-.78-1.31-1.18a25.64 25.64 0 00-4.7-5.58 42.77 42.77 0 00-10.14-7.05 87.73 87.73 0 00-10.61-4.61l-.48-.16a36.22 36.22 0 00-8.35-1.5c-.71 0-1.4-.06-2.08-.06a32.46 32.46 0 00-5.49.45 28.11 28.11 0 00-6.86 2 30.87 30.87 0 00-4.72 2.57 59.32 59.32 0 00-8.75 6.67 70.76 70.76 0 00-14 17.76 45.09 45.09 0 00-4 9.65 33.85 33.85 0 00-1.66 11.17 32.6 32.6 0 002 10.49 33.13 33.13 0 003.48 6.84c.14.44.29.87.44 1.29.26.69.53 1.38.83 2a31.65 31.65 0 00-5.8 1.62 10 10 0 00-1.4.67 13.41 13.41 0 00-7 11.8 10.51 10.51 0 00.06 1.12 14.87 14.87 0 003.79 8l.11.23c.74 5.29 4.61 9.31 8.35 12.54 6.61 6.1 13.27 10.52 19.8 13.14A52.3 52.3 0 0061.63 165h1.27a48.27 48.27 0 0014.1-2.19 41.41 41.41 0 0010.52-5 32.39 32.39 0 007.7-7.22c.33-.44.64-.87.94-1.31a25.14 25.14 0 003.5 3.77 34.83 34.83 0 005.67 4 39.72 39.72 0 0016.7 4.46c1 .07 2 .1 3 .1a35 35 0 006.3-.54 33.66 33.66 0 008.6-2.89 6.36 6.36 0 00.58-.3 31.13 31.13 0 009.23-8.34 13.81 13.81 0 001.06 2.23 17 17 0 006.47 6.18 26.5 26.5 0 006.05 2.39l3.74 1 .45.12.7.16a20.24 20.24 0 003.85.4 13 13 0 006.43-1.59 13.46 13.46 0 006.3-8.05 9.72 9.72 0 00.34-1.49v-.07c.39-2.56.88-5.27 1.43-8.05.16-.81.32-1.64.49-2.47 1.42-.47 2.85-1 4.28-1.49a104.27 104.27 0 0010.76-4.62 93.34 93.34 0 004.22-2.26v.13a17 17 0 001.65 9 17.52 17.52 0 001.82 2.91 16.76 16.76 0 001.28 3.54 19.4 19.4 0 004.92 6.19c1.31 1.12 2.5 2.08 3.53 2.84s2.08 1.5 3.18 2.21a20.92 20.92 0 006.08 2.69 16.58 16.58 0 004.24.53 25.07 25.07 0 005.85-.76c3.38-.62 6.79-1.27 10.16-1.94 3.56-.7 7.11-1.38 10.53-2a17.63 17.63 0 005.38-1.78 17.47 17.47 0 003.8 2.95l.34.19a22.73 22.73 0 006.35 2.22c.91.17 2 .42 3.26.75l.4.1a18.71 18.71 0 003.92.3 12.75 12.75 0 006.58-1.73 13.58 13.58 0 006-7.87v-.09l1.59 1.29c1.87 1.5 3.51 2.73 5 3.77.18.12.36.24.55.35a23.12 23.12 0 009.65 3.44 22.61 22.61 0 002.29.11 21.48 21.48 0 005-.57c.94-.16 1.73-.3 2.41-.44a15 15 0 003.4-1.14c.12.08.23.14.35.23a9.07 9.07 0 001.18.65h.07c1.3.65 2.65 1.27 4 1.84s2.32 1 3.37 1.35l.3.11a19.91 19.91 0 006.6 1.25 14.16 14.16 0 003.58-.45 14.52 14.52 0 009.46-8.27c0-.08.07-.16.11-.25q1.45-3.33 3-6.82c.36-.8.74-1.62 1.14-2.47 2.37-.48 4.95-.92 7.7-1.3l1.68-.24a14.38 14.38 0 002.6 4.48c.14.17.29.33.44.48a17.56 17.56 0 003.74 8.1 17.9 17.9 0 008.61 5.26 29.67 29.67 0 007.44 1.52c1.82.12 3.78.19 5.84.19 1.78 0 7.19 0 11.23-3.77a13.5 13.5 0 002.53-3.28c.45.32.89.63 1.36.93a20.57 20.57 0 002.2 1.35 16.73 16.73 0 004.25 1.55 17.63 17.63 0 003.89.42c.44 0 .91 0 1.38-.05a25.86 25.86 0 004.79-.82c3.05-.61 6.38-1.26 9.92-1.92l10.63-2a21.2 21.2 0 004.34-1.25c.77.52 1.55 1 2.36 1.46h.05a40 40 0 0016.7 4.46c1 .07 2 .1 3 .1a34.31 34.31 0 006.31-.55 33.63 33.63 0 008.6-2.88 6.45 6.45 0 00.58-.31 31.06 31.06 0 009.24-8.35c.15.34.3.68.47 1a15.82 15.82 0 006.81 6.63 25.49 25.49 0 006.44 2.71l4 1a18.9 18.9 0 004.84.7 12.69 12.69 0 005.7-1.3 12.84 12.84 0 006.05-6.6 19.94 19.94 0 007 4.53l.26.1a65.3 65.3 0 009.12 2.53 19.66 19.66 0 004.14.46c7.06 0 12.55-4.46 13.8-11.16.24-1.07.5-2.18.77-3.35a25.29 25.29 0 005.15 6 34.42 34.42 0 006.41 4.38 34.77 34.77 0 008.75 3.08 74.62 74.62 0 007.52 1.2 41.53 41.53 0 004.4.24 32.34 32.34 0 007.57-.85 29 29 0 0011.11-5.44c.17-.13.33-.26.48-.4a48.43 48.43 0 0010.55-13.42 74.43 74.43 0 006.16-15.34 82 82 0 002.79-16.08 70.87 70.87 0 00-.49-15.42z"/><path class="cls-2" d="M283 152a8.11 8.11 0 01-1.79-.23c-1.5-.38-2.8-.68-3.91-.89a12.72 12.72 0 01-3.55-1.25 5.86 5.86 0 01-2.57-2.64 7.89 7.89 0 01-.5-3.88q.17-1.74.45-5c.19-2.18.43-4.65.7-7.41s.59-5.73.94-8.9.75-6.41 1.15-9.51.86-6.27 1.36-9.24 1-5.7 1.56-8.08a37.47 37.47 0 011.86-6.06 6.52 6.52 0 012.49-3.4c3.47-1.57 7.05-3.09 10.7-4.55a56.46 56.46 0 0111.11-3.2 34.24 34.24 0 015.87-.53 29.07 29.07 0 014.61.37 16.36 16.36 0 018.93 4.57 52.15 52.15 0 015.31 6.83 29.78 29.78 0 013.78 9c.76 3.93.45 7.18-.91 9.72a30.76 30.76 0 01-9.75 10.74 88.81 88.81 0 01-14.69 8.38c1 1.11 2.08 2.27 3.21 3.46 1.47 1.55 3 3.14 4.6 4.73s3.11 3.06 4.69 4.56 3 2.73 4.32 3.79c.92.79 2.08 1.94 1.83 3.19a4.09 4.09 0 01-1.78 2.33 7.37 7.37 0 01-2.9 1.53c-.68.13-1.5.28-2.48.44a11.1 11.1 0 01-2.93.37c-.44 0-.88 0-1.34-.06a13.59 13.59 0 01-5.46-2.06q-2-1.37-4.44-3.35c-1.66-1.33-3.39-2.8-5.13-4.38s-3.52-3.27-5.26-5a67.408 67.408 0 01-3.52-3.73c-.59 2.63-1.14 5.18-1.64 7.59-.62 3.06-1.85 9.06-1.85 9.06v.05a3.85 3.85 0 01-1.55 2.28 3 3 0 01-1.52.36zm15.61-54c-.81 2.62-1.61 5.46-2.39 8.46-.67 2.59-1.43 5.38-2.26 8.31a45.37 45.37 0 0015.17-9.32 20.64 20.64 0 004.06-5.1c1-1.87.89-2.77.76-3.14-.57-1.33-3-1.62-4.87-1.62a25.87 25.87 0 00-5 .55 24.14 24.14 0 00-5.47 1.86zM61.63 155a42.1 42.1 0 01-15.8-3.1c-5.43-2.17-11.1-6-16.86-11.31-3.34-2.87-4.93-4.91-5.12-6.56v-.14a4.76 4.76 0 012.64-4.26l.08-.05h.09a22.56 22.56 0 014.23-1.17 18 18 0 013.19-.28h1.37a20.5 20.5 0 014.36.79 14.5 14.5 0 013.86 1.78c5.69 3.45 10.73 5.73 15 6.74A19.38 19.38 0 0063 138a6.35 6.35 0 004-1.1l.11-.08.13-.09s0-.1-.1-.21a8.71 8.71 0 00-2.29-2.38c-1.25-1-2.84-2.08-4.72-3.28s-3.94-2.49-6.07-3.82-4.26-2.69-6.42-4.11a61 61 0 01-5.94-4.39 33.13 33.13 0 01-5.27-5.38 23.82 23.82 0 01-5.15-14.33 25.49 25.49 0 011.32-8.51 35.77 35.77 0 013.29-7.87 60.17 60.17 0 015.41-8.14 61.45 61.45 0 016.86-7.4 50.28 50.28 0 017.64-5.81 22.85 22.85 0 013.5-1.91 20.22 20.22 0 014.76-1.4 24.74 24.74 0 014-.32h1.61A27.53 27.53 0 0176 58.68a82.15 82.15 0 019.66 4.18 34.24 34.24 0 018.17 5.67 17 17 0 013.42 4.12A16.61 16.61 0 0199 76.8a17.56 17.56 0 01.56 3.89c0 1.16.06 2.28.06 3.34v.14a61.9 61.9 0 01-1.07 6.32c-.49 2.25-1.06 4.55-1.7 6.83s-1.35 4.53-2.12 6.65a55 55 0 01-2.37 5.59 6.53 6.53 0 01-3.2 3.24 4.39 4.39 0 01-1.57.28 8.63 8.63 0 01-3.13-.7c-10.07-3.55-14.8-8.63-14-15.08a25.27 25.27 0 01.71-4.3l1.15-4.71c.38-1.57.71-3.06 1-4.45a10.8 10.8 0 00.24-3.12 1.6 1.6 0 00-.1-.46 6.8 6.8 0 00-1.73.95A20.85 20.85 0 0068 83.93a37.11 37.11 0 00-3.9 4.15 33.16 33.16 0 00-3.33 5 18.58 18.58 0 00-1.91 5.29 12.34 12.34 0 00.09 5 7.74 7.74 0 002.64 4.15 54.24 54.24 0 006.64 5.25c2.44 1.66 4.94 3.29 7.41 4.86s4.85 3.14 7.07 4.69a31.59 31.59 0 015.69 5 13 13 0 013 5.71 9.4 9.4 0 01-1.23 6.61 29.81 29.81 0 01-3 4.87 22.47 22.47 0 01-5.34 5 31.13 31.13 0 01-8 3.78 38.89 38.89 0 01-11.17 1.64zM125 151.58c-.74 0-1.52 0-2.31-.08a30 30 0 01-12.54-3.23 24.15 24.15 0 01-4-2.82 15.67 15.67 0 01-3.33-4.11 22.16 22.16 0 01-2.61-7.13 47.41 47.41 0 01-.79-8.91 83.85 83.85 0 01.66-10.19c.44-3.54 1-7.19 1.73-10.87s1.53-7.38 2.42-11.06 1.86-7.31 2.84-10.8c.52-1.91 1.35-3.07 2.52-3.52a3.93 3.93 0 011.43-.24 10.15 10.15 0 013.15.63 29 29 0 014.83 1.94 33.52 33.52 0 014.53 2.81c3.3 2.39 4.44 5.51 3.4 9.27-.88 2.84-1.8 5.93-2.75 9.21s-1.84 6.64-2.65 10-1.5 6.65-2.07 9.84a71.45 71.45 0 00-1 8.55 22 22 0 00.38 6.1c.48 2 1.4 2.21 1.71 2.3a2.16 2.16 0 00.51.06c.87 0 1.81-.62 2.78-1.84a30.28 30.28 0 003.91-7.25 106.93 106.93 0 003.64-11c1.16-4.14 2.26-8.49 3.26-12.93s1.93-8.82 2.74-13.1 1.55-8.11 2.2-11.48c.19-2.56 1.46-3.47 2.51-3.78a6.57 6.57 0 011.88-.26 10.43 10.43 0 012.63.38 26.3 26.3 0 015.19 2c1.77.89 3.42 1.8 4.92 2.69a10.83 10.83 0 012 1.5 4.63 4.63 0 011.09 1.62 4.11 4.11 0 01.22 1.89 16.69 16.69 0 01-.34 2c-1.62 7.71-3.29 14.95-5 21.5a178.7 178.7 0 01-5.31 17.41 65.68 65.68 0 01-6.16 12.8 22.85 22.85 0 01-7.63 7.69 23.29 23.29 0 01-6 2 25 25 0 01-4.59.41zM172.05 152a10.62 10.62 0 01-2-.22l-4.2-1.12a17.4 17.4 0 01-3.79-1.48 7 7 0 01-2.7-2.54 5.54 5.54 0 01-.41-4.17v-.13a32.35 32.35 0 001.3-6.41c.4-3.08.77-6.63 1.1-10.55s.65-8.06 1-12.31.66-8.24 1-11.8.71-6.68 1.12-9.12c.49-2.94 1.06-4.33 2-4.78 2.06-1.08 4.38-2.23 6.9-3.41s5.17-2.26 7.86-3.22a71.74 71.74 0 018.17-2.41 39.79 39.79 0 018-1h.6a23.91 23.91 0 016.68.91 14.38 14.38 0 016 3.47 57.43 57.43 0 015.32 6.78 29.78 29.78 0 013.78 9 14.33 14.33 0 01-1 9.6 21 21 0 01-2.49 4 43.18 43.18 0 01-3.23 3.6 46.61 46.61 0 01-6.82 5.53 77 77 0 01-8.58 5 95.71 95.71 0 01-9.72 4.18c-3.18 1.16-6.35 2.18-9.44 3q-.92 4.33-1.71 8.39c-.58 2.9-1.08 5.75-1.51 8.47V149.41a3.75 3.75 0 01-1.62 2.29 3.21 3.21 0 01-1.61.3zm14.84-54.16c-.81 2.78-1.6 5.69-2.35 8.67-.65 2.63-1.32 5.35-2 8.16a41.79 41.79 0 008.23-3.81 36.32 36.32 0 006.93-5.33 17.93 17.93 0 003.73-5.14 5.11 5.11 0 00.47-3.68v-.1c-.1-.4-.75-.68-1.13-.81a8.85 8.85 0 00-2.91-.41h-.56a28.69 28.69 0 00-5.06.72 32.92 32.92 0 00-5.35 1.72zM233 151.86a6.39 6.39 0 01-1.65-.19 11.12 11.12 0 01-3.2-1.4c-.92-.6-1.84-1.23-2.7-1.87s-1.88-1.46-3-2.46a9.22 9.22 0 01-2.41-3 8.16 8.16 0 01-.72-4.29l7.88-55.16.65-.16c2.34-.6 5-1.24 7.84-1.89s5.91-1.27 9.05-1.81 6.43-1 9.71-1.44 6.66-.68 9.95-.79h.23c4.24 0 6 2.26 6.69 4.19a16.92 16.92 0 011.53 3.73c.27 1.07.55 2.24.83 3.51.28 1.83.1 3-.56 3.74s-1.77 1.14-3.64 1.39c-3.3.39-6.68.77-10.18 1.15-3.27.36-6.76.8-10.4 1.3-.74 2.26-1.44 4.61-2.08 7-.59 2.18-1.24 4.49-1.94 6.87 1.14-.13 2.29-.23 3.44-.31 1.67-.11 3.44-.19 5.28-.25h.67a9.62 9.62 0 013.31.48 5.41 5.41 0 012.74 2.59 16.75 16.75 0 011.58 3.4c.36 1.07.69 2.19 1 3.3.33 1 .72 2.44-.08 3.41-.52.64-1.56 1.1-3.39 1.5-3.26.6-6.64 1.18-10.07 1.72-3.16.51-6.25 1.07-9.21 1.67-.38 1.52-.73 3-1.07 4.34-.26 1-.53 2.1-.81 3.14 2-.32 4-.59 5.82-.81 2.34-.28 4.9-.5 7.63-.66h1.14a8 8 0 012.84.44 5.56 5.56 0 012.66 2.37 21.08 21.08 0 011.6 3.25c.35.94.74 1.9 1.16 2.84V142.87a3.83 3.83 0 01-.14 3.05c-.46.68-1.43 1.11-3.27 1.45q-5.24 1-10.63 2c-3.47.69-6.94 1.35-10.32 2a15.85 15.85 0 01-3.76.49zM601.69 152a32.82 32.82 0 01-3.36-.18 62.18 62.18 0 01-6.48-1 23.37 23.37 0 01-10.76-5.25 15.27 15.27 0 01-3.59-4.39 33.52 33.52 0 01-3-8.78 46.33 46.33 0 01-.92-10.2 56.3 56.3 0 011.25-10.87 56.45 56.45 0 019-20.75 46.49 46.49 0 017.66-8.49 21.34 21.34 0 017.21-3.56 19.58 19.58 0 015.4-.8 17.11 17.11 0 012.6.2 48.45 48.45 0 019.07 2.34 26.42 26.42 0 017.23 3.9 18 18 0 014.81 5.69 24.75 24.75 0 012.18 6.7 60.86 60.86 0 01.42 13.22 71.17 71.17 0 01-2.45 14.12 63.48 63.48 0 01-5.32 13.26 38.37 38.37 0 01-8.36 10.67 19.21 19.21 0 01-7.3 3.62 22.83 22.83 0 01-5.29.55zm6.69-58a3.88 3.88 0 00-2.38 1.3 25.74 25.74 0 00-4.09 5.24 59.4 59.4 0 00-3.91 7.53 68.77 68.77 0 00-2.94 8 45.35 45.35 0 00-1.6 7.82 47 47 0 00-.33 7.53 18.71 18.71 0 001.08 5.78 3.77 3.77 0 002.23 2.52 2.35 2.35 0 00.77.13 3.56 3.56 0 002-.73 14.92 14.92 0 003.51-3.77 35.79 35.79 0 003.46-6.48 62.23 62.23 0 002.86-8.5 66.21 66.21 0 001.7-8.36 62.28 62.28 0 00.64-8.5 26.78 26.78 0 00-.74-6.74c-.29-1.07-.83-2.42-1.74-2.69a1.5 1.5 0 00-.52-.08zM522.61 152a9.24 9.24 0 01-2.34-.38l-4-1a15.66 15.66 0 01-4.16-1.8 6.05 6.05 0 01-2.78-2.48 7.16 7.16 0 01-.56-3.85c.11-1.47.29-3.58.54-6.31s.57-5.84 1-9.32.88-7.2 1.39-11.14 1.09-7.92 1.69-11.85 1.22-7.82 1.84-11.4 1.25-6.93 1.85-9.77c.46-2 1.34-3.25 2.64-3.79a5.3 5.3 0 012.06-.37 10.27 10.27 0 012.58.37c2.06.61 4 1.21 6 1.81a48.31 48.31 0 016.1 2.43 8.63 8.63 0 014 3 12.91 12.91 0 011.72 5.11q.4 2.35 1.06 6t1.47 8c.54 2.87 1.11 5.81 1.71 8.84.24 1.16.47 2.31.7 3.44.92-5.35 2-10.67 3.2-15.88 1.61-6.92 3.22-13.37 4.8-19.18.52-1.89 1.39-3.1 2.58-3.61a4.93 4.93 0 011.93-.34 10.76 10.76 0 012.67.38l2.21.57a12.46 12.46 0 012.08.71c.66.28 1.36.62 2.08 1s1.58.9 2.53 1.52c1.83 1.13 2.85 2.33 3.1 3.64a8.74 8.74 0 01-.4 4.12c-1.25 4-2.56 8.62-3.92 13.71s-2.72 10.36-4.05 15.63-2.59 10.35-3.84 15.5-2.29 9.52-3.15 13.28c-.31 2-1.73 3.14-4 3.14a9.88 9.88 0 01-2.11-.25 56 56 0 01-7.81-2.17 9.65 9.65 0 01-5.66-5.46c-.76-1.68-1.56-3.69-2.36-6s-1.61-4.69-2.42-7.28-1.65-5.31-2.46-8.12c-.4-1.36-.79-2.73-1.16-4.09q-.51 2.83-1 5.67l-1.8 9.7q-.86 4.62-1.55 8.58c-.46 2.65-.83 5-1.1 6.88a3.42 3.42 0 01-1.61 2.52 2.67 2.67 0 01-1.29.29zM475.29 152c-.74 0-1.51 0-2.31-.08a30.18 30.18 0 01-12.53-3.23 24.76 24.76 0 01-4-2.82 15.83 15.83 0 01-3.33-4.11 22.13 22.13 0 01-2.61-7.14 46.51 46.51 0 01-.79-8.91 84.11 84.11 0 01.66-10.19c.43-3.53 1-7.19 1.73-10.87s1.52-7.37 2.42-11 1.85-7.31 2.83-10.8c.53-1.92 1.36-3.07 2.53-3.53a3.91 3.91 0 011.42-.24 9.81 9.81 0 013.15.64 29.46 29.46 0 014.84 1.94 33.42 33.42 0 014.51 2.78c3.31 2.39 4.45 5.5 3.41 9.26-.88 2.85-1.8 5.94-2.75 9.22s-1.84 6.63-2.65 10-1.5 6.66-2.07 9.85a69.23 69.23 0 00-1.05 8.55 21.61 21.61 0 00.38 6.1c.47 2 1.4 2.21 1.7 2.29a1.79 1.79 0 00.51.07c.88 0 1.82-.62 2.78-1.85a29.65 29.65 0 003.91-7.24 106.22 106.22 0 003.65-11c1.16-4.14 2.26-8.49 3.26-12.92s1.92-8.82 2.74-13.1 1.54-8.12 2.2-11.49c.18-2.55 1.46-3.46 2.51-3.77a6.55 6.55 0 011.87-.26 10.4 10.4 0 012.64.37 26.93 26.93 0 015.19 2c1.76.9 3.42 1.8 4.92 2.69a12.12 12.12 0 012 1.51 4.54 4.54 0 011.04 1.62 4.11 4.11 0 01.22 1.89 16.43 16.43 0 01-.35 2c-1.62 7.72-3.28 15-4.95 21.51a181.51 181.51 0 01-5.31 17.41 66.25 66.25 0 01-6.16 12.8 23 23 0 01-7.63 7.69 23.8 23.8 0 01-6 2 25 25 0 01-4.53.36zM422.15 152a7.83 7.83 0 01-1.68-.17 7 7 0 01-1.76-.63 12.23 12.23 0 01-1.3-.8 28.7 28.7 0 01-2.59-1.88c-.76-.63-1.76-1.43-3-2.4a9.22 9.22 0 01-2.4-2.91 6.54 6.54 0 01-.51-4.09c.15-2 .42-4.53.82-7.55s.85-6.13 1.39-9.48 1.16-7 1.81-10.54 1.36-7.24 2.13-10.87 1.53-7 2.34-10.42 1.58-6.43 2.34-9.2c.67-2 1.56-3.09 2.72-3.5a4.47 4.47 0 011.48-.23 10.55 10.55 0 012.94.5 45.57 45.57 0 015.57 1.87 29.9 29.9 0 015.34 2.76 9 9 0 013 3.11 5.33 5.33 0 01-.16 4c-1.08 3.25-2.2 6.87-3.3 10.75s-2.25 8-3.35 12.1-2.19 8.31-3.19 12.38c-.88 3.58-1.71 7-2.48 10.36 2-.32 3.87-.57 5.63-.75 2.2-.22 4.61-.41 7.15-.57h1.21a7.85 7.85 0 012.69.39 5.68 5.68 0 012.66 2.41 17.78 17.78 0 011.68 3.15 21.06 21.06 0 011 3.05 4 4 0 01.21 3c-.36.73-1.35 1.18-3.53 1.6l-10.6 2q-5.44 1-10.34 2a15.74 15.74 0 01-3.16.58zM396.69 154.82c-1.84 0-3.58-.06-5.15-.16a19.82 19.82 0 01-5.09-1.08 8.43 8.43 0 01-4.09-2.27 9.36 9.36 0 01-1.72-4.78c-.28-2-.53-4.31-.75-6.77q-.25-3.06-.53-6.62-7.23 1-14.41 2a124.8 124.8 0 00-13.18 2.52c-1.27 2.5-2.41 4.88-3.4 7.08q-1.58 3.53-3.05 6.9a4.7 4.7 0 01-2.92 2.84 4.42 4.42 0 01-1.07.13 10.5 10.5 0 01-3.32-.69c-1-.37-2-.78-3.08-1.24s-2.27-1-3.4-1.57h-.07l-.07-.05c-.83-.55-1.55-1-2.17-1.4a5.59 5.59 0 01-1.9-1.84 5.68 5.68 0 01-.78-2.79 13.12 13.12 0 01.63-3.94c1.71-4.93 3.94-10.71 6.65-17.24s5.64-13.33 8.77-20.3 6.33-13.83 9.62-20.66 6.43-12.9 9.37-18.17a15.26 15.26 0 014.5-5.06 11 11 0 016.44-1.69c.61 0 1.24 0 1.91.08 2.88.14 5.51.38 7.77.7s4.38.69 6.28 1.12 3.65.9 5.27 1.4 3.15.94 4.74 1.36c2.65.93 4.26 2.15 5 3.76a10.65 10.65 0 01.7 5.64c-.42 5-.77 10.72-1.05 17.12s-.49 13.26-.63 20.24-.23 14.13-.27 21.14 0 13.64.06 19.65a4.71 4.71 0 01-1.2 3.6c-.79.69-2.19 1.04-4.41 1.04zM378 85.75c-2.08 3.85-4.29 8-6.59 12.39-2.88 5.48-5.82 11.23-8.76 17.13 2.39-.35 4.79-.65 7.16-.91 2.81-.31 5.66-.57 8.48-.77-.13-5.34-.23-10.73-.29-16-.06-3.97-.06-7.92 0-11.84z"/><path class="cls-3" d="M282.94 134.09c-.62 3.06-1.24 6.06-1.84 9a2.94 2.94 0 01-1.1 1.72 4 4 0 01-2.58 0q-2.21-.58-3.93-.9a11.47 11.47 0 01-3.27-1.15 4.87 4.87 0 01-2.13-2.17 7 7 0 01-.41-3.4c.11-1.14.26-2.81.45-5s.42-4.65.69-7.41.59-5.71.95-8.88.73-6.33 1.14-9.49.86-6.23 1.35-9.21 1-5.65 1.56-8a35.45 35.45 0 011.8-5.89 5.72 5.72 0 012-2.91c3.39-1.52 6.92-3 10.6-4.5a55.3 55.3 0 0110.89-3.15 30.22 30.22 0 0110.15-.16 15.32 15.32 0 018.39 4.29 51.6 51.6 0 015.19 6.67 28.84 28.84 0 013.65 8.72q1.05 5.49-.82 9a29.7 29.7 0 01-9.45 10.4 89.81 89.81 0 01-15.76 8.84q1.88 2.13 4.13 4.5t4.63 4.75q2.37 2.37 4.7 4.58c1.56 1.47 3 2.76 4.38 3.85 1.09.92 1.58 1.66 1.48 2.21a3.16 3.16 0 01-1.4 1.71 6.49 6.49 0 01-2.49 1.36l-2.5.45a11.15 11.15 0 01-4 .28 12.45 12.45 0 01-5-1.92c-1.26-.87-2.7-2-4.34-3.28s-3.33-2.75-5.07-4.33-3.5-3.24-5.24-5a62.59 62.59 0 01-4.75-5.19q-1.1 5.03-2.05 9.61zm8.31-33.88q-1.25 4.79-2.78 10.15a46.8 46.8 0 0010-4.63 44.89 44.89 0 007.33-5.56 21.45 21.45 0 004.26-5.36q1.31-2.53.81-3.93-1-2.3-5.81-2.29a26.88 26.88 0 00-5.23.57 24.91 24.91 0 00-6.06 2.13c-.86 2.78-1.7 5.76-2.52 8.92zM26 121.9a17.68 17.68 0 014.24-.21 19.1 19.1 0 014.09.74 12.73 12.73 0 013.52 1.62q8.81 5.36 15.36 6.92t9.49-.73a1.34 1.34 0 00.47-2 9.89 9.89 0 00-2.62-2.78c-1.3-1-2.9-2.13-4.83-3.36s-4-2.5-6.08-3.83-4.26-2.69-6.39-4.08a61 61 0 01-5.82-4.3 32.45 32.45 0 01-5.09-5.19 23.35 23.35 0 01-3.51-6.3 22.61 22.61 0 01-1.36-7.28 24.2 24.2 0 011.25-8.08 34.53 34.53 0 013.2-7.65 60.6 60.6 0 0112-15.21 49.31 49.31 0 017.44-5.66 20.62 20.62 0 013.36-1.83 18.06 18.06 0 014.46-1.31 24.25 24.25 0 015.34-.27 26.74 26.74 0 016 1.1 80.17 80.17 0 019.48 4.1 32.25 32.25 0 017.86 5.46A15.58 15.58 0 0191 65.59a15 15 0 011.57 3.83 17.12 17.12 0 01.57 3.58v3.3a60.31 60.31 0 01-1 6.19q-.73 3.36-1.68 6.76t-2.09 6.56a54.23 54.23 0 01-2.31 5.45 5.38 5.38 0 01-2.52 2.62 5.39 5.39 0 01-3.77-.42q-14.26-5-13.21-13.74a23.14 23.14 0 01.68-4.14c.38-1.57.77-3.14 1.15-4.72s.72-3.07 1-4.51a11.69 11.69 0 00.26-3.51c-.1-.91-.44-1.43-1-1.57s-1.5.24-2.83 1.15a22.46 22.46 0 00-3.77 2.83 36.32 36.32 0 00-4 4.3 34 34 0 00-3.46 5.25 19.43 19.43 0 00-2 5.66 13.46 13.46 0 00.1 5.55 9 9 0 003 4.83 55.22 55.22 0 006.77 5.35q3.72 2.51 7.44 4.87t7 4.67a30.39 30.39 0 015.45 4.77 11.46 11.46 0 012.72 5.14 8.08 8.08 0 01-1.1 5.71 28.14 28.14 0 01-2.97 4.76 21.16 21.16 0 01-5 4.67 29.71 29.71 0 01-7.65 3.61A37.09 37.09 0 0157.54 146a40.8 40.8 0 01-16.36-3q-8-3.19-16.46-11.06-4.51-3.94-4.72-5.79a3.53 3.53 0 012-3.15 22.1 22.1 0 014-1.1zM97.21 128a45.2 45.2 0 01-.78-8.71 83.88 83.88 0 01.65-10.07q.66-5.33 1.72-10.8t2.41-11c.91-3.69 1.85-7.27 2.83-10.77.43-1.58 1.08-2.53 1.92-2.86s2.14-.19 3.89.41a28.73 28.73 0 014.71 1.88 33.56 33.56 0 014.38 2.7Q123.35 82 122 87q-1.3 4.25-2.74 9.2t-2.66 10c-.82 3.39-1.51 6.69-2.09 9.9a73.29 73.29 0 00-1.06 8.68 22.4 22.4 0 00.41 6.38c.41 1.7 1.21 2.71 2.41 3 1.48.39 2.92-.32 4.34-2.13a30.56 30.56 0 004.05-7.48 108.1 108.1 0 003.69-11.09q1.75-6.31 3.27-13t2.74-13.13q1.23-6.47 2.21-11.54c.11-1.64.71-2.62 1.8-3a7.32 7.32 0 014 .12 25.34 25.34 0 015 2c1.78.9 3.4 1.78 4.88 2.66a10.86 10.86 0 011.68 1.43 3.81 3.81 0 01.86 1.27 3.19 3.19 0 01.16 1.43 15.49 15.49 0 01-.33 1.84q-2.46 11.7-5 21.48a177.7 177.7 0 01-5.28 17.31 63.76 63.76 0 01-6.06 12.61 21.9 21.9 0 01-7.28 7.37 23 23 0 01-5.73 1.92 26.85 26.85 0 01-6.55.29 28.93 28.93 0 01-12.11-3.12 22.61 22.61 0 01-3.85-2.7 14.35 14.35 0 01-3.11-3.84 21 21 0 01-2.44-6.86zM171.8 134.56c-.58 2.89-1.08 5.73-1.52 8.51a2.84 2.84 0 01-1.14 1.72 4.9 4.9 0 01-2.87 0l-4.13-1.11a15.36 15.36 0 01-3.56-1.39 5.85 5.85 0 01-2.33-2.17 4.57 4.57 0 01-.29-3.44 33.66 33.66 0 001.35-6.63q.62-4.67 1.1-10.59t1-12.32q.48-6.39 1-11.79c.33-3.6.69-6.61 1.1-9s.89-3.78 1.44-4c2.07-1.09 4.36-2.23 6.87-3.4s5.1-2.24 7.78-3.19a72.5 72.5 0 018.06-2.38 39 39 0 017.81-1 23.18 23.18 0 017 .86 13.37 13.37 0 015.61 3.23 56.85 56.85 0 015.08 6.53 28.84 28.84 0 013.65 8.72 13.64 13.64 0 01.28 4.75 13.84 13.84 0 01-1.22 4.17 19.68 19.68 0 01-2.38 3.77 40.81 40.81 0 01-3.15 3.52 45.19 45.19 0 01-6.67 5.4 77.51 77.51 0 01-8.47 4.91 92.78 92.78 0 01-9.62 4.13q-5 1.84-9.94 3.15-.99 4.7-1.84 9.04zm15.51-28.85a38 38 0 007.12-5.49 18.81 18.81 0 003.93-5.44 6 6 0 00.49-4.42c-.17-.66-.75-1.16-1.76-1.52a10.85 10.85 0 00-3.85-.45 28.84 28.84 0 00-5.24.74 34 34 0 00-5.93 2q-1.32 4.43-2.5 9.17t-2.41 9.91a45 45 0 0010.15-4.5zM231.89 76.4q4.29-1 9-1.8t9.66-1.43q4.95-.61 9.86-.78 4.66-.08 6 3.6a15.85 15.85 0 011.47 3.56c.27 1.07.55 2.23.82 3.48.22 1.42.11 2.38-.33 2.87a5.25 5.25 0 01-3 1.06c-3.27.38-6.65.77-10.15 1.15s-7.17.84-11 1.39c-.82 2.45-1.59 5-2.3 7.65s-1.5 5.42-2.37 8.31c1.64-.22 3.27-.38 4.91-.49s3.38-.19 5.24-.25a9.61 9.61 0 013.6.41 4.39 4.39 0 012.21 2.13 16.39 16.39 0 011.51 3.23c.36 1.07.67 2.14.95 3.23.43 1.26.47 2.11.12 2.54a5.47 5.47 0 01-2.83 1.15q-4.9.9-10 1.72t-9.86 1.8q-.66 2.61-1.23 4.95c-.38 1.55-.79 3.1-1.23 4.62 2.56-.43 5-.79 7.33-1.06s4.84-.49 7.57-.65a8.67 8.67 0 013.56.32 4.55 4.55 0 012.17 2 19.22 19.22 0 011.51 3.07c.35.95.75 1.92 1.19 2.9a3.08 3.08 0 010 2.25c-.28.41-1.15.75-2.62 1q-5.23 1-10.64 2t-10.31 2a10.68 10.68 0 01-5 .36 9.86 9.86 0 01-2.9-1.26c-.93-.6-1.82-1.22-2.66-1.85s-1.84-1.43-3-2.41a8.17 8.17 0 01-2.17-2.7 7.12 7.12 0 01-.61-3.77l7.77-54.42c2.29-.59 4.87-1.22 7.76-1.88zM622.88 84.32a23.61 23.61 0 012.12 6.42 59.76 59.76 0 01.41 13 70.5 70.5 0 01-2.41 13.89 62.57 62.57 0 01-5.24 13.05 37.26 37.26 0 01-8.14 10.4 18 18 0 01-6.88 3.39 24.31 24.31 0 01-8.26.37 63.11 63.11 0 01-6.39-1 23.52 23.52 0 01-6-2.09 23 23 0 01-4.34-2.95 13.87 13.87 0 01-3.36-4.09 32.31 32.31 0 01-2.94-8.51 44.94 44.94 0 01-.9-10 55.22 55.22 0 011.23-10.69 56.15 56.15 0 013.35-10.59 54.84 54.84 0 015.44-9.79 45.48 45.48 0 017.49-8.3 20.25 20.25 0 016.84-3.36 17.36 17.36 0 017.57-.57 47 47 0 018.88 2.29 25.22 25.22 0 017 3.77 17 17 0 014.53 5.36zm-21.57 4.25a26.55 26.55 0 00-4.25 5.43 59.39 59.39 0 00-4 7.65 66.74 66.74 0 00-3 8.14 47.43 47.43 0 00-1.64 8 46.78 46.78 0 00-.33 7.7 19.53 19.53 0 001.15 6.09 4.68 4.68 0 002.87 3.11 4 4 0 003.6-.73 16 16 0 003.76-4 36.64 36.64 0 003.56-6.67 64.29 64.29 0 002.91-8.64 67.61 67.61 0 001.72-8.47 62.74 62.74 0 00.65-8.64 27.23 27.23 0 00-.78-7c-.52-1.94-1.32-3.07-2.41-3.4s-2.39.1-3.81 1.43zM547.27 95.89q2.4-10.4 4.78-19.15c.44-1.58 1.11-2.57 2-2.95a6.61 6.61 0 014 .08l2.21.58a12.4 12.4 0 011.92.65c.63.28 1.3.6 2 1s1.52.88 2.45 1.48c1.58 1 2.47 2 2.66 3a7.69 7.69 0 01-.37 3.65Q567 90.25 565 97.94t-4.06 15.63q-2 7.94-3.84 15.51t-3.15 13.3q-.5 3.1-4.92 2.13a54.19 54.19 0 01-7.69-2.13 8.65 8.65 0 01-5.07-4.91c-.77-1.69-1.54-3.66-2.34-5.89s-1.59-4.65-2.41-7.25-1.64-5.29-2.45-8.1-1.59-5.63-2.3-8.47c-.6 3.38-1.21 6.77-1.84 10.15s-1.23 6.62-1.8 9.7-1.09 5.94-1.55 8.59-.84 5-1.11 6.92a2.49 2.49 0 01-1.06 1.76 4.81 4.81 0 01-2.87-.21l-4-1a14.68 14.68 0 01-3.88-1.68 5.17 5.17 0 01-2.42-2.09 6.22 6.22 0 01-.45-3.31q.17-2.2.53-6.3t1-9.29q.62-5.2 1.4-11.13T510.39 98q.9-5.89 1.84-11.38t1.85-9.74c.38-1.63 1.06-2.66 2-3.07a6.48 6.48 0 014 0c2 .61 4 1.2 5.9 1.8a48.4 48.4 0 016 2.38 7.76 7.76 0 013.6 2.66 12 12 0 011.56 4.7q.4 2.39 1.06 6.06t1.47 8c.55 2.87 1.12 5.81 1.72 8.84s1.2 5.93 1.8 8.72q1.67-10.68 4.08-21.08zM447.48 128.45a45.34 45.34 0 01-.77-8.72 81.71 81.71 0 01.65-10.06q.66-5.33 1.72-10.81t2.41-11q1.35-5.52 2.83-10.76c.43-1.58 1.07-2.54 1.92-2.86s2.14-.19 3.89.41a27.44 27.44 0 014.7 1.88 31.53 31.53 0 014.38 2.7q4.43 3.19 3 8.18c-.87 2.84-1.79 5.91-2.74 9.21s-1.84 6.65-2.66 10-1.51 6.68-2.09 9.9a71 71 0 00-1.06 8.68 22.43 22.43 0 00.41 6.38c.41 1.69 1.21 2.7 2.41 3q2.21.57 4.34-2.13a30.65 30.65 0 004-7.49 107.42 107.42 0 003.68-11.09q1.77-6.3 3.28-13t2.74-13.14q1.23-6.47 2.21-11.54c.11-1.63.71-2.62 1.8-2.94a7.32 7.32 0 014 .12 25.5 25.5 0 015 2q2.67 1.35 4.87 2.66a10.43 10.43 0 011.76 1.35 3.62 3.62 0 01.86 1.27 3.09 3.09 0 01.16 1.43 15.37 15.37 0 01-.28 1.92q-2.46 11.7-4.95 21.48a178.56 178.56 0 01-5.28 17.31 65.46 65.46 0 01-6.06 12.61 21.77 21.77 0 01-7.28 7.36 22.65 22.65 0 01-5.73 1.93 26.41 26.41 0 01-6.55.28 28.94 28.94 0 01-12.11-3.11 22.61 22.61 0 01-3.85-2.7 14.4 14.4 0 01-3.11-3.85 21 21 0 01-2.5-6.86zM432.2 142.42q-5.44 1-10.35 2a16.24 16.24 0 01-3 .58 7.47 7.47 0 01-2.13-.13 5.77 5.77 0 01-1.51-.53 11.15 11.15 0 01-1.19-.73 26.29 26.29 0 01-2.53-1.85c-.77-.62-1.78-1.43-3-2.41a8.08 8.08 0 01-2.13-2.58 5.54 5.54 0 01-.41-3.48c.16-2.13.44-4.65.82-7.57s.84-6.07 1.39-9.45 1.15-6.89 1.8-10.52 1.37-7.24 2.13-10.84 1.54-7.07 2.33-10.4 1.57-6.38 2.33-9.16c.55-1.59 1.24-2.53 2.09-2.83a6.66 6.66 0 013.81.29 45.25 45.25 0 015.48 1.84 28.57 28.57 0 015.16 2.66 8.5 8.5 0 012.66 2.7 4.53 4.53 0 01-.21 3.27q-1.74 4.92-3.37 10.81T429 106.2q-1.68 6.22-3.19 12.4T423 130.43c2.51-.44 4.85-.77 7-1s4.55-.41 7.12-.58a8.51 8.51 0 013.47.29 4.67 4.67 0 012.17 2 16.71 16.71 0 011.6 3 20 20 0 01.94 2.91 3.61 3.61 0 01.29 2.29c-.19.38-1.14.74-2.83 1.06zM359.61 126.11a123.41 123.41 0 00-13.88 2.69c-1.41 2.74-2.64 5.3-3.69 7.65s-2.08 4.66-3.06 6.91a3.44 3.44 0 01-2.06 2.11 6.75 6.75 0 01-3.64-.52c-.92-.36-1.92-.76-3-1.22s-2.2-1-3.32-1.53c-.85-.56-1.58-1-2.22-1.42a4.38 4.38 0 01-1.47-1.43 4.3 4.3 0 01-.59-2.16 11.92 11.92 0 01.59-3.54q2.52-7.27 6.59-17.09t8.76-20.26q4.69-10.45 9.6-20.63t9.34-18.1a13.92 13.92 0 014.12-4.65c1.69-1.19 4.18-1.65 7.49-1.37q4.32.21 7.7.69c2.26.31 4.31.68 6.18 1.11s3.59.88 5.17 1.37 3.18 1 4.8 1.37q3.27 1.15 4.17 3.06a9.38 9.38 0 01.58 5q-.63 7.5-1.06 17.2t-.63 20.26q-.21 10.56-.26 21.16t.05 19.68a3.51 3.51 0 01-.79 2.64c-.53.49-1.71.74-3.54.74s-3.52 0-5.06-.16a18.1 18.1 0 01-4.75-1 7.29 7.29 0 01-3.54-1.9 8.23 8.23 0 01-1.42-4.12q-.42-3.06-.74-6.7c-.21-2.42-.42-5.08-.63-8q-7.93 1.05-15.79 2.16zm5.17-18.21q4.8-.53 9.66-.84-.22-8.66-.32-17.25t.11-17q-4.23 7.71-9.13 17t-9.87 19.36q4.77-.73 9.55-1.27z"/><path class="cls-4" d="M284.94 137.09c-.62 3.06-1.24 6.06-1.84 9a2.94 2.94 0 01-1.1 1.72 4 4 0 01-2.58 0q-2.21-.58-3.93-.9a11.47 11.47 0 01-3.27-1.15 4.87 4.87 0 01-2.13-2.17 7 7 0 01-.41-3.4c.11-1.14.26-2.81.45-5s.42-4.65.69-7.41.59-5.71.95-8.88.73-6.33 1.14-9.49.86-6.23 1.35-9.21 1-5.65 1.56-8a35.45 35.45 0 011.8-5.89 5.72 5.72 0 012-2.91c3.39-1.52 6.92-3 10.6-4.5a55.3 55.3 0 0110.89-3.15 30.22 30.22 0 0110.15-.16 15.32 15.32 0 018.39 4.29 51.6 51.6 0 015.19 6.67 28.84 28.84 0 013.65 8.72q1.05 5.49-.82 9a29.7 29.7 0 01-9.45 10.4 89.81 89.81 0 01-15.76 8.84q1.88 2.13 4.13 4.5t4.63 4.75q2.37 2.37 4.7 4.58c1.56 1.47 3 2.76 4.38 3.85 1.09.92 1.58 1.66 1.48 2.21a3.16 3.16 0 01-1.4 1.71 6.49 6.49 0 01-2.49 1.36l-2.5.45a11.15 11.15 0 01-4 .28 12.45 12.45 0 01-5-1.92c-1.26-.87-2.7-2-4.34-3.28s-3.33-2.75-5.07-4.33-3.5-3.24-5.24-5a62.59 62.59 0 01-4.75-5.19q-1.1 5.03-2.05 9.61zm8.31-33.88q-1.25 4.79-2.78 10.15a46.8 46.8 0 0010-4.63 44.89 44.89 0 007.33-5.56 21.45 21.45 0 004.26-5.36q1.31-2.53.81-3.93-1-2.3-5.81-2.29a26.88 26.88 0 00-5.23.57 24.91 24.91 0 00-6.06 2.13c-.86 2.78-1.7 5.76-2.52 8.92zM28.54 125.75a16.76 16.76 0 014.25-.21 19.33 19.33 0 014.09.73 13.13 13.13 0 013.51 1.63q8.8 5.34 15.36 6.92t9.49-.74a1.33 1.33 0 00.47-2 9.87 9.87 0 00-2.62-2.78q-1.94-1.51-4.82-3.35c-1.93-1.23-4-2.5-6.08-3.83s-4.27-2.69-6.4-4.09a60.6 60.6 0 01-5.82-4.3 32.88 32.88 0 01-5.09-5.19 23.3 23.3 0 01-3.51-6.29A22.62 22.62 0 0130 95a23.91 23.91 0 011.26-8.07 33.87 33.87 0 013.19-7.66 60.32 60.32 0 0112-15.2 48.81 48.81 0 017.45-5.67 20.83 20.83 0 013.35-1.83 18.63 18.63 0 014.46-1.31 23.68 23.68 0 015.36-.26 25.49 25.49 0 016 1.1 77.85 77.85 0 019.44 4.09 32.49 32.49 0 017.87 5.45 15.59 15.59 0 013.19 3.83 15.33 15.33 0 011.58 3.82 17.08 17.08 0 01.52 3.62v3.31a60.15 60.15 0 01-1 6.18Q94 89.73 93 93.14t-2.1 6.55a52.32 52.32 0 01-2.31 5.45 5.41 5.41 0 01-2.51 2.62 5.42 5.42 0 01-3.78-.42q-14.26-5-13.21-13.73a23.92 23.92 0 01.68-4.14c.38-1.58.77-3.15 1.15-4.72s.72-3.08 1-4.51a11.71 11.71 0 00.26-3.51c-.1-.91-.43-1.44-1-1.58s-1.51.25-2.83 1.16a22 22 0 00-3.78 2.83 37.17 37.17 0 00-4 4.3 34.69 34.69 0 00-3.46 5.24 19.53 19.53 0 00-2 5.66 13.51 13.51 0 00.1 5.56 9 9 0 003 4.82 56 56 0 006.79 5.35q3.72 2.52 7.44 4.88c2.48 1.57 4.83 3.13 7 4.66a30 30 0 015.45 4.77 11.69 11.69 0 012.73 5.14 8.22 8.22 0 01-1.1 5.72 28.19 28.19 0 01-2.93 4.76 21.09 21.09 0 01-5 4.67 30.13 30.13 0 01-7.66 3.62 37 37 0 01-10.8 1.57 40.84 40.84 0 01-16.36-3q-8-3.19-16.46-11.06c-3-2.59-4.58-4.51-4.72-5.77a3.52 3.52 0 012-3.14 20.28 20.28 0 013.95-1.14zM99.21 131a45.2 45.2 0 01-.78-8.71 83.88 83.88 0 01.65-10.07q.66-5.33 1.72-10.8t2.41-11c.91-3.69 1.85-7.27 2.83-10.77.43-1.58 1.08-2.53 1.92-2.86s2.14-.19 3.89.41a28.73 28.73 0 014.71 1.88 33.56 33.56 0 014.38 2.7Q125.35 85 124 90q-1.3 4.25-2.74 9.2t-2.66 10c-.82 3.39-1.51 6.69-2.09 9.9a73.29 73.29 0 00-1.06 8.68 22.4 22.4 0 00.41 6.38c.41 1.7 1.21 2.71 2.41 3 1.48.39 2.92-.32 4.34-2.13a30.56 30.56 0 004.05-7.48 108.1 108.1 0 003.69-11.09q1.75-6.31 3.27-13t2.74-13.13q1.23-6.47 2.21-11.54c.11-1.64.71-2.62 1.8-3a7.32 7.32 0 014 .12 25.34 25.34 0 015 2c1.78.9 3.4 1.78 4.88 2.66a10.86 10.86 0 011.68 1.43 3.81 3.81 0 01.86 1.27 3.19 3.19 0 01.16 1.43 15.49 15.49 0 01-.33 1.84q-2.46 11.7-5 21.48a177.7 177.7 0 01-5.28 17.31 63.76 63.76 0 01-6.06 12.61 21.9 21.9 0 01-7.28 7.37 23 23 0 01-5.73 1.92 26.85 26.85 0 01-6.55.29 28.93 28.93 0 01-12.11-3.12 22.61 22.61 0 01-3.85-2.7 14.35 14.35 0 01-3.11-3.84 21 21 0 01-2.44-6.86zM173.8 137.56c-.58 2.89-1.08 5.73-1.52 8.51a2.84 2.84 0 01-1.14 1.72 4.9 4.9 0 01-2.87 0l-4.13-1.11a15.36 15.36 0 01-3.56-1.39 5.85 5.85 0 01-2.33-2.17 4.57 4.57 0 01-.29-3.44 33.66 33.66 0 001.35-6.63q.62-4.67 1.1-10.59t1-12.32q.48-6.39 1-11.79c.33-3.6.69-6.61 1.1-9s.89-3.78 1.44-4c2.07-1.09 4.36-2.23 6.87-3.4s5.1-2.24 7.78-3.19a72.5 72.5 0 018.06-2.38 39 39 0 017.81-1 23.18 23.18 0 017 .86 13.37 13.37 0 015.61 3.23 56.85 56.85 0 015.08 6.53 28.84 28.84 0 013.65 8.72 13.64 13.64 0 01.28 4.75 13.84 13.84 0 01-1.22 4.17 19.68 19.68 0 01-2.38 3.77 40.81 40.81 0 01-3.15 3.52 45.19 45.19 0 01-6.67 5.4 77.51 77.51 0 01-8.47 4.91 92.78 92.78 0 01-9.62 4.13q-5 1.84-9.94 3.15-.99 4.69-1.84 9.04zm15.51-28.85a38 38 0 007.12-5.49 18.81 18.81 0 003.93-5.44 6 6 0 00.49-4.42c-.17-.66-.75-1.16-1.76-1.52a10.85 10.85 0 00-3.85-.45 28.84 28.84 0 00-5.24.74 34 34 0 00-5.93 2q-1.32 4.43-2.5 9.17t-2.41 9.91a45 45 0 0010.15-4.5zM233.89 79.4q4.29-1 9-1.8t9.66-1.43q4.95-.61 9.86-.78 4.66-.08 6 3.6a15.85 15.85 0 011.47 3.56c.27 1.07.55 2.23.82 3.48.22 1.42.11 2.38-.33 2.87a5.25 5.25 0 01-3 1.06c-3.27.38-6.65.77-10.15 1.15s-7.17.84-11 1.39c-.82 2.45-1.59 5-2.3 7.65s-1.5 5.42-2.37 8.31c1.64-.22 3.27-.38 4.91-.49s3.38-.19 5.24-.25a9.61 9.61 0 013.6.41 4.39 4.39 0 012.21 2.13 16.39 16.39 0 011.51 3.23c.36 1.07.67 2.14.95 3.23.43 1.26.47 2.11.12 2.54a5.47 5.47 0 01-2.83 1.15q-4.91.9-10 1.72t-9.86 1.8q-.66 2.61-1.23 4.95c-.38 1.55-.79 3.1-1.23 4.62 2.56-.43 5-.79 7.33-1.06s4.84-.49 7.57-.65a8.67 8.67 0 013.56.32 4.55 4.55 0 012.17 2 19.22 19.22 0 011.51 3.07c.35.95.75 1.92 1.19 2.9a3.08 3.08 0 010 2.25c-.28.41-1.15.75-2.62 1q-5.23 1-10.64 2t-10.31 2a10.68 10.68 0 01-5 .36 9.86 9.86 0 01-2.9-1.26c-.93-.6-1.82-1.22-2.66-1.85s-1.84-1.43-3-2.41a8.17 8.17 0 01-2.17-2.7 7.12 7.12 0 01-.61-3.77l7.77-54.42c2.29-.59 4.87-1.22 7.76-1.88zM624.88 87.32a23.61 23.61 0 012.12 6.42 59.76 59.76 0 01.41 13 70.5 70.5 0 01-2.41 13.89 62.57 62.57 0 01-5.24 13.05 37.26 37.26 0 01-8.14 10.4 18 18 0 01-6.88 3.39 24.31 24.31 0 01-8.26.37 63.11 63.11 0 01-6.39-1 23.52 23.52 0 01-6-2.09 23 23 0 01-4.34-2.95 13.87 13.87 0 01-3.36-4.09 32.31 32.31 0 01-2.94-8.51 44.94 44.94 0 01-.9-10 55.22 55.22 0 011.23-10.69 56.15 56.15 0 013.35-10.59 54.84 54.84 0 015.44-9.79 45.48 45.48 0 017.49-8.3 20.25 20.25 0 016.84-3.36 17.36 17.36 0 017.57-.57 47 47 0 018.88 2.29 25.22 25.22 0 017 3.77 17 17 0 014.53 5.36zm-21.57 4.25a26.55 26.55 0 00-4.25 5.43 59.39 59.39 0 00-4 7.65 66.74 66.74 0 00-3 8.14 47.43 47.43 0 00-1.64 8 46.78 46.78 0 00-.33 7.7 19.53 19.53 0 001.15 6.09 4.68 4.68 0 002.87 3.11 4 4 0 003.6-.73 16 16 0 003.76-4 36.64 36.64 0 003.56-6.67 64.29 64.29 0 002.91-8.64 67.61 67.61 0 001.72-8.47 62.74 62.74 0 00.65-8.64 27.23 27.23 0 00-.78-7c-.52-1.94-1.32-3.07-2.41-3.4s-2.39.1-3.81 1.43zM549.27 98.89q2.4-10.4 4.78-19.15c.44-1.58 1.11-2.57 2-2.95a6.61 6.61 0 014 .08l2.21.58a12.4 12.4 0 011.92.65c.63.28 1.3.6 2 1s1.52.88 2.45 1.48c1.58 1 2.47 2 2.66 3a7.69 7.69 0 01-.37 3.65Q569 93.25 567 100.94t-4.06 15.63q-2 7.94-3.84 15.51t-3.15 13.3q-.5 3.1-4.92 2.13a54.19 54.19 0 01-7.69-2.13 8.65 8.65 0 01-5.07-4.91c-.77-1.69-1.54-3.66-2.34-5.89s-1.59-4.65-2.41-7.25-1.64-5.29-2.45-8.1-1.59-5.63-2.3-8.47c-.6 3.38-1.21 6.77-1.84 10.15s-1.23 6.62-1.8 9.7-1.09 5.94-1.55 8.59-.84 5-1.11 6.92a2.49 2.49 0 01-1.06 1.76 4.81 4.81 0 01-2.87-.21l-4-1a14.68 14.68 0 01-3.88-1.68 5.17 5.17 0 01-2.42-2.09 6.22 6.22 0 01-.45-3.31q.17-2.2.53-6.3t1-9.29q.62-5.2 1.4-11.13t1.67-11.87q.9-5.89 1.84-11.38t1.85-9.74c.38-1.63 1.06-2.66 2-3.07a6.48 6.48 0 014 0c2 .61 4 1.2 5.9 1.8a48.4 48.4 0 016 2.38 7.76 7.76 0 013.6 2.66 12 12 0 011.56 4.7q.4 2.39 1.06 6.06t1.47 8c.55 2.87 1.12 5.81 1.72 8.84s1.2 5.93 1.8 8.72q1.67-10.68 4.08-21.08zM449.48 131.45a45.34 45.34 0 01-.77-8.72 81.71 81.71 0 01.65-10.06q.66-5.33 1.72-10.81t2.41-11q1.35-5.52 2.83-10.76c.43-1.58 1.07-2.54 1.92-2.86s2.14-.19 3.89.41a27.44 27.44 0 014.7 1.88 31.53 31.53 0 014.38 2.7q4.43 3.19 3 8.18c-.87 2.84-1.79 5.91-2.74 9.21s-1.84 6.65-2.66 10-1.51 6.68-2.09 9.9a71 71 0 00-1.06 8.68 22.43 22.43 0 00.41 6.38c.41 1.69 1.21 2.7 2.41 3q2.21.57 4.34-2.13a30.65 30.65 0 004-7.49 107.42 107.42 0 003.68-11.09q1.77-6.3 3.28-13t2.74-13.14q1.23-6.47 2.21-11.54c.11-1.63.71-2.62 1.8-2.94a7.32 7.32 0 014 .12 25.5 25.5 0 015 2q2.67 1.35 4.87 2.66a10.43 10.43 0 011.76 1.35 3.62 3.62 0 01.86 1.27 3.09 3.09 0 01.16 1.43 15.37 15.37 0 01-.28 1.92q-2.46 11.7-4.95 21.48a178.56 178.56 0 01-5.28 17.31 65.46 65.46 0 01-6.06 12.61 21.77 21.77 0 01-7.28 7.36 22.65 22.65 0 01-5.73 1.93 26.41 26.41 0 01-6.55.28 28.94 28.94 0 01-12.11-3.11 22.61 22.61 0 01-3.85-2.7 14.4 14.4 0 01-3.11-3.85 21 21 0 01-2.5-6.86zM434.2 145.42q-5.44 1-10.35 2a16.24 16.24 0 01-3 .58 7.47 7.47 0 01-2.13-.13 5.77 5.77 0 01-1.51-.53 11.15 11.15 0 01-1.19-.73 26.29 26.29 0 01-2.53-1.85c-.77-.62-1.78-1.43-3-2.41a8.08 8.08 0 01-2.13-2.58 5.54 5.54 0 01-.41-3.48c.16-2.13.44-4.65.82-7.57s.84-6.07 1.39-9.45 1.15-6.89 1.8-10.52 1.37-7.24 2.13-10.84 1.54-7.07 2.33-10.4 1.57-6.38 2.33-9.16c.55-1.59 1.24-2.53 2.09-2.83a6.66 6.66 0 013.81.29 45.25 45.25 0 015.48 1.84 28.57 28.57 0 015.16 2.66 8.5 8.5 0 012.66 2.7 4.53 4.53 0 01-.21 3.27q-1.74 4.92-3.37 10.81T431 109.2q-1.68 6.22-3.19 12.4T425 133.43c2.51-.44 4.85-.77 7-1s4.55-.41 7.12-.58a8.51 8.51 0 013.47.29 4.67 4.67 0 012.17 2 16.71 16.71 0 011.6 3 20 20 0 01.94 2.91 3.61 3.61 0 01.29 2.29c-.19.38-1.14.74-2.83 1.06zM362.19 130a121.2 121.2 0 00-13.88 2.69q-2.12 4.11-3.69 7.65t-3.06 6.91a3.46 3.46 0 01-2.06 2.11 6.78 6.78 0 01-3.64-.53c-.92-.35-1.92-.75-3-1.21s-2.2-1-3.32-1.53c-.85-.56-1.59-1-2.22-1.42a4.51 4.51 0 01-1.48-1.43 4.41 4.41 0 01-.58-2.16 12.19 12.19 0 01.58-3.54q2.54-7.28 6.6-17.09t8.76-20.27q4.69-10.44 9.6-20.63t9.34-18.1a14 14 0 014.12-4.64c1.69-1.19 4.18-1.65 7.49-1.37q4.32.21 7.7.69t6.18 1.1c1.86.43 3.58.88 5.17 1.37s3.18 1 4.8 1.38q3.27 1.15 4.17 3.06a9.46 9.46 0 01.58 5q-.63 7.49-1.06 17.2t-.63 20.26q-.21 10.56-.26 21.16t.05 19.68a3.51 3.51 0 01-.79 2.64c-.53.49-1.71.74-3.54.74s-3.52 0-5.06-.16a18.1 18.1 0 01-4.75-1 7.37 7.37 0 01-3.54-1.9 8.23 8.23 0 01-1.42-4.12q-.42-3.06-.74-6.7c-.21-2.43-.42-5.08-.63-8q-7.98 1.04-15.79 2.16zm5.17-18.21q4.8-.52 9.66-.84-.22-8.66-.32-17.25t.1-17.05q-4.21 7.71-9.12 17.05t-9.87 19.3q4.76-.69 9.55-1.23z"/><path class="cls-1" d="M804.6 3.33a14.26 14.26 0 00-12.18-3 17.61 17.61 0 00-3.68 1.16c-2.8 1.24-5.6 2.5-8.46 3.8s-5.87 2.66-8.81 4q-20.52 9-41.05 18l-17.62 7.7-.16.06a14.57 14.57 0 00-5.44 3.59 27.29 27.29 0 00-4.61 5.67c-.17.26-.34.52-.52.77-6.8 10-13.64 20.33-19.7 29.53a16 16 0 00-3.25.31l-.4.08a50.4 50.4 0 00-17.16 7c-8.35 5.11-13.17 12.49-16.07 17.61-5.18 9.14-9.31 19.15-13.4 32.45l-.1.35a19.45 19.45 0 00-1 4.7 12.91 12.91 0 00-.3 4.26 11.31 11.31 0 00.35 1.93c-.59.91-1.16 1.81-1.68 2.69a95.3 95.3 0 00-7.3 16.56l-.11.31a75.2 75.2 0 01-6.45 13.55l-3 4.56a11.66 11.66 0 002.39 15.46 11.5 11.5 0 0015.56-1.1c.73-.78 2.91-3.1 3.55-3.71 3.78-2.83 8.38-4.78 14.11-6.82a110.4 110.4 0 0016.89-7.33 13.28 13.28 0 006.56.33l.78-.18 1.25-.19.69-.21c5.92-1.74 11.17-3.5 16-5.36 1.44-.55 2.84-1.15 4.09-1.68 1.41-.59 2.73-1.15 4-1.61a14.09 14.09 0 004.34-2.16 21.55 21.55 0 004.24-2c5.58-3.07 12-7 17.2-13a47 47 0 0010.55-20.85 15.53 15.53 0 00.41-4.6l9.91-6q12.66-7.71 25.32-15.4a14.17 14.17 0 005.66-6.68c3.48-8.12 7.07-16.37 10.55-24.35l.1-.23c7.17-16.46 14.59-33.47 21.47-50.44a20.72 20.72 0 001.61-7.42 15 15 0 00-5.13-12.11z"/><path d="M661.28 131.14l-4.56 1.86c-1.58 1.13-3.57 1.59-4.9 3.15A66.42 66.42 0 00639 151.72c-2.82 4.77-4.66 9.89-6.53 15a85.79 85.79 0 01-7.48 15.66 9.23 9.23 0 00-1.37 2.57l-.62 1.15c1.59-1.29 2.8-2.32 4.07-3.28 5.26-4 11.22-6.41 17.27-8.56 9.44-3.36 18.61-7.27 26.11-14.55a39 39 0 007.1-8.59 12.35 12.35 0 001.13-2.62c.67-2.31-.24-3.59-2.61-3.61a17.3 17.3 0 01-6.14-.73c-1.75-.67-1.76-.84-.15-2.16.31-.38.84-.26 1.16-.6 1.42-1.73 2.82-1.81 4.64-.82a18.68 18.68 0 008.93 1.87c.89 0 1.7-.62 2.6-.6 3.8-2.25 7.62-4.47 11.4-6.76q17.76-10.77 35.49-21.6l30.59-18.59a2.91 2.91 0 001.19-1.45c10.68-24.93 21.85-49.69 32-74.81a9.79 9.79 0 00.79-3.46c.08-3.32-2.22-4.85-5.38-3.46-5.78 2.54-11.51 5.22-17.29 7.75q-29.35 12.87-58.74 25.68a4.13 4.13 0 00-2.08 1.3 19.94 19.94 0 00-3.83 4.81c-12.63 18.58-24.82 37.41-37.23 56.12-2.56 3.86-5 7.79-7.62 11.61a10.79 10.79 0 00-1.52 8.61 16.64 16.64 0 002.82 6.56c.91 1.25-.08 3.84-1.62 4.39-.53.18-.62-.2-.75-.53a10.73 10.73 0 01-.59-2.65 12.92 12.92 0 00-.46-2.7c-.53-1.67-1.18-1.97-3-1.53z"/><path d="M701.21 154.77c5.34-2.93 10.47-6.12 14.59-10.8a36.48 36.48 0 008.06-16c.23-1 .31-2-.6-2.64a2.45 2.45 0 00-3.09.32 10.9 10.9 0 01-1.48.88c-3.28 1.28-6 3.53-9 5.4-4.31 2.73-8.47 5.73-12.85 8.36a5.77 5.77 0 00-1.32 1.11 13.83 13.83 0 00-1.59 3c-1.79 4.67-5.29 7.88-9.36 10.59-.16.11-.31.22-.47.35a16.23 16.23 0 01-3 1.88c-2.81 1.52-5.41 3.47-8.44 4.52-.66.92-1.72 1-2.61 1.43s-2.11.86-2.6 2c0 1.52.87 1.9 2.23 1.54.48-.12 1-.18 1.43-.26 5.11-1.51 10.18-3.16 15.2-5.08 2.82-1.08 5.55-2.39 8.39-3.41a2.89 2.89 0 001.64-.88c1.49-1.08 3.36-1.25 4.87-2.31zM666.36 113.89l1.23-1c1.71-1.44 2.69-3.41 3.9-5.2q6-8.79 12-17.52a3.12 3.12 0 00.84-2.58c-.28-1.87-1.47-2.2-3.21-1.82a39.42 39.42 0 00-13.59 5.67c-5.52 3.32-9.25 8.23-12.35 13.68-5.46 9.64-9.25 19.85-12.44 30.25a8.33 8.33 0 00-.62 3.29c-.21.89-.81 2 .39 2.37s1.67-.79 2.1-1.59c1.8-3.32 3.43-6.71 5.27-10a41.07 41.07 0 019.31-11.94 20.31 20.31 0 011.9-1.14c1.62-1.15 3.61-1.36 5.27-2.47z"/><path d="M735.85 82.56c-1.54-4.14-4.15-6.4-8.13-7.08a22.31 22.31 0 00-4.41-.16 7.23 7.23 0 00-5.53 2.77c-10.52 12-21.18 23.8-31.77 35.7-.42.48-1.52.94-.82 1.81.55.68 1.16 1.33 2.18.1 1.93-2.33 4-4.54 6-6.82a11.11 11.11 0 013.77-2.94c1.46-.66 2.83-.75 4 .33s1 2.49.36 3.92a19.7 19.7 0 01-3.91 5.47c-1.44 1.48-2.95 2.88-4.38 4.37-.44.45-1.53.83-.6 1.75.7.69 1.25.52 2-.11q9.9-8.06 19.84-16c6.72-5.43 13.39-10.91 20.17-16.25a3.82 3.82 0 001.69-3.85c-.17-1.19-.31-2.33-.46-3.01z" fill="#bf0000"/><path d="M764.17 40.11a19 19 0 01-2.5-8.58c0-.81-.28-1.09-1.12-.72Q747.26 36.62 734 42.38c-.06 0-.09.09-.14.14.82.41 1.57-.13 2.31-.42 2.29-.9 4.55-1.91 7-2.66-2.71 2.49-4.53 5.67-7.32 8.09-2.36 2-4.17 4.69-6.27 7a28 28 0 00-3.1 3.43c-.34.55-1 .58-1.51.7a26.47 26.47 0 01-1.45 11 19.26 19.26 0 0112 2.26c1.08.27 1.77-.49 2.44-1.17 2.74-2.75 5.23-5.71 7.74-8.65s5.44-5.68 7.88-8.76c3.08-3.89 6.88-7.16 9.74-11.24.34-.59.92-1.16.85-1.99z" fill="#ffb300"/><path d="M683.19 112c3.79-4.49 7.28-8.62 10.75-12.75Q705.39 85.61 716.81 72c4-4.71 4-13.55.18-17.7-.86-.94-1.32-1.18-2.25.22q-16.14 24.23-32.4 48.38a2.76 2.76 0 00-.49 2.42c.51 2.04.85 4.13 1.34 6.68z" fill="red"/><path class="cls-8" d="M764.17 40.11c-2.57 3.67-5.8 6.78-8.67 10.19-3.3 3.9-6.88 7.53-10.16 11.44-2.57 3.07-5.31 6-8 9a4.53 4.53 0 01-1.92 1.26 16.62 16.62 0 017.25 10.57c.8.2.84.23 1.33-.36 2.32-2.84 4.89-5.47 7.3-8.23 3.25-3.74 6.79-7.21 10-11 4.21-5 8.57-9.76 13-14.54.41-.45.94-1 .22-1.57a19.23 19.23 0 01-10.35-6.76z"/><path d="M697 124.1l6.94 1.15a3.39 3.39 0 002.3-.75c6.48-4 12.93-8 19.41-12 9.63-5.93 19.29-11.82 28.9-17.79 1-.59 2.6-1 2.62-2s-1.46-1.75-2.5-2.29c-3.29-1.71-6.83-1.48-10.57-.69-4.4 1-7.45 4.1-10.84 6.65-11.9 8.94-23.7 18-35.53 27.07-.13.08-.26.22-.73.65z" fill="#7f0000"/><path d="M774.48 46.84c-.27 1.86-2 2.63-3.06 3.92-2.79 3.5-6.08 6.57-8.85 10.11-1.84 2.36-4.05 4.45-6.08 6.68q-4.1 4.49-8.14 9c-1.71 1.92-3.36 3.88-5 5.81-.18.21-.38.33-.64.17-.08 3.81-.06 3.88 3.4 2.5 1.84-.74 3.7-.74 5.56-1.08A2.48 2.48 0 00753 83c4.65-4.93 9-10.15 13.56-15.13 3.27-3.54 6.06-7.5 9.74-10.68.79-.68.85-1.87 1.75-2.5.9-2 1.78-3.93 2.69-5.88.32-.68.24-1-.52-1.15-1.91-.27-3.82-.55-5.74-.82z" fill="#ff8f00"/><path class="cls-11" d="M643.59 150.39a42.69 42.69 0 00-5.59 10.85c-2 5-3.65 10.14-6.16 15a2.19 2.19 0 00-.07.56 9.67 9.67 0 003.07-1.56c5.68-3.06 11.81-4.73 17.67-7.21 3-1.25 6-2.38 8.65-4.44-3.26-.51-4.76-3.36-7.11-5.09-.41-.3-.56-.9-1.14-1-.91.57-1.49 1.57-2.51 2-.38.16-.81.51-1.17.15s-.13-.8.11-1.17c.4-.64.86-1.24 1.29-1.86-.62-2.17-2.77-2.89-4.18-4.3-.8-.82-1.45-1.97-2.86-1.93zM778.06 54.67c-1.75 1.72-3.62 3.33-5.22 5.17-4.2 4.83-8.52 9.55-12.67 14.4-2.8 3.28-5.92 6.27-8.54 9.7 4.42 0 8.45 1 11.79 4.13 1.81-4 3.53-7.85 5.23-11.68q4.36-9.87 8.71-19.75c.28-.64.47-1.31.7-1.97z"/><path class="cls-12" d="M724.88 58.7c.39.83.92.87 1.51.08 2.5-3.35 5.82-6 8.17-9.48.18-.26.33-.61.58-.76 3.3-2 5-5.64 7.84-8.07a5.48 5.48 0 00.65-.71c.27-.33.77-.66.4-1.1s-.69 0-1 .12l-8.11 3.37c-.35.15-.72.25-1.08.37l-11.91 5c-.71.29-1.35.56-.72 1.42 2.08 2.86 2.9 6.3 3.67 9.76zM668.36 157.82a25.86 25.86 0 006.4-7.84c1.1-2.19.7-2.78-1.69-2.72a11.73 11.73 0 01-6.33-1.28c-.72-.41-1.14-.28-1.74.32-1.64 1.62-3.35 3.17-5 4.75-.19.78.36 1.11.83 1.45a39.68 39.68 0 015.15 4.63c.57.62 1.16 1.6 2.38.69z"/><path class="cls-8" d="M668.36 157.82a1.13 1.13 0 01-1.32-.29 77.45 77.45 0 00-7.07-6.48l-7.08 6.41a4.5 4.5 0 001 1.65c1.37 1.41 3.13 2.38 4.4 3.92a2.08 2.08 0 002.89.55 32.85 32.85 0 007.18-5.76zM643.59 150.39l7 6.19c2.45-2.53 4.84-5.11 7-7.85-.08-1.29-1.32-1.57-2-2.33a23.34 23.34 0 00-5.19-4.46 42.63 42.63 0 00-6.81 8.45z"/><path class="cls-12" d="M650.47 141.94c.26 1.12 1.34 1.41 2 2.07 1.7 1.58 3.43 3.15 5.14 4.72 1.55-1.69 3.07-3.4 4.67-5a1.74 1.74 0 00.52-2.27 14.44 14.44 0 01-1.25-5.26c-.1-1.56-.87-1.68-2.07-1.13a28.8 28.8 0 00-9.01 6.87z"/><path class="cls-1" d="M772.73 36.2a11.66 11.66 0 003.4-2.53q4.7-4.29 9.37-8.6a7.83 7.83 0 001-1c.54-.69 1.43-1.51.82-2.3s-1.76-.33-2.55.18c-4.71 3.08-9.39 6.22-14.07 9.35a4 4 0 00-.7.66c-1 1.14-1.68 2.39-.79 3.71s2.17 1.22 3.52.53z"/></g></g></svg>